solid DriveTrainWithResQ
facet normal 1.5459269239287947e-05 -0.9999999995858277 2.4276643272496095e-05
  outer loop
    vertex 211.29716225083206 -56.89092584507346 97.23942468701765
    vertex 11.297197613837099 -56.88889547409529 104.73312924478053
    vertex 11.297022331610826 -56.88907755099464 97.23315540798525
  endloop
endfacet
facet normal 1.5459269239287947e-05 -0.9999999995858277 2.4276643272496095e-05
  outer loop
    vertex 11.297197613837099 -56.88889547409529 104.73312924478053
    vertex 211.29716225083206 -56.89092584507346 97.23942468701765
    vertex 211.29705016485977 -56.89074377261632 104.73939852503219
  endloop
endfacet
facet normal -1.5459169941757663e-05 0.9999999998801278 -8.709307805810435e-07
  outer loop
    vertex 11.29684282541677 -43.89866416622711 104.7330818241307
    vertex 211.29693444038787 -43.900518993038254 97.23934575545726
    vertex 11.296848402702985 -43.89867069812692 97.2330764761962
  endloop
endfacet
facet normal -1.5459169941757663e-05 0.9999999998801278 -8.709307805810435e-07
  outer loop
    vertex 211.29693444038787 -43.900518993038254 97.23934575545726
    vertex 11.29684282541677 -43.89866416622711 104.7330818241307
    vertex 211.29700321962179 -43.90051245998933 104.73935110307626
  endloop
endfacet
facet normal -4.055541803069262e-06 0.5000107903962479 0.8660191738471339
  outer loop
    vertex 11.297107591330038 -50.39368829216363 108.48309365527663
    vertex 211.29700321962179 -43.90051245998933 104.73935110307626
    vertex 11.29684282541677 -43.89866416622711 104.7330818241307
  endloop
endfacet
facet normal -4.055541803069262e-06 0.5000107903962479 0.8660191738471339
  outer loop
    vertex 211.29700321962179 -43.90051245998933 104.73935110307626
    vertex 11.297107591330038 -50.39368829216363 108.48309365527663
    vertex 211.2969709186594 -50.39553659051823 108.48936293548255
  endloop
endfacet
facet normal -1.140375887409259e-05 0.4999954793967699 -0.8660280136651173
  outer loop
    vertex 211.29693444038787 -43.900518993038254 97.23934575545726
    vertex 11.296938425210946 -50.39387788005822 93.48311206570014
    vertex 11.296848402702985 -43.89867069812692 97.2330764761962
  endloop
endfacet
facet normal -1.140375887409259e-05 0.4999954793967699 -0.8660280136651173
  outer loop
    vertex 11.296938425210946 -50.39387788005822 93.48311206570014
    vertex 211.29693444038787 -43.900518993038254 97.23934575545726
    vertex 211.29701368658783 -50.39572617513563 93.48938134501097
  endloop
endfacet
facet normal 0.999999999939982 1.0575413614890249e-05 2.863027748227437e-06
  outer loop
    vertex 211.29701368658783 -50.39572617513563 93.48938134501097
    vertex 211.29705016485977 -56.89074377261632 104.73939852503219
    vertex 211.29716225083206 -56.89092584507346 97.23942468701765
  endloop
endfacet
facet normal 0.999999999939982 1.0575413614890249e-05 2.863027748227437e-06
  outer loop
    vertex 211.29705016485977 -56.89074377261632 104.73939852503219
    vertex 211.29701368658783 -50.39572617513563 93.48938134501097
    vertex 211.2969709186594 -50.39553659051823 108.48936293548255
  endloop
endfacet
facet normal 0.999999999939982 1.0575413614890249e-05 2.863027748227437e-06
  outer loop
    vertex 211.2969709186594 -50.39553659051823 108.48936293548255
    vertex 211.29701368658783 -50.39572617513563 93.48938134501097
    vertex 211.29693444038787 -43.900518993038254 97.23934575545726
  endloop
endfacet
facet normal 0.999999999939982 1.0575413614890249e-05 2.863027748227437e-06
  outer loop
    vertex 211.2969709186594 -50.39553659051823 108.48936293548255
    vertex 211.29693444038787 -43.900518993038254 97.23934575545726
    vertex 211.29700321962179 -43.90051245998933 104.73935110307626
  endloop
endfacet
facet normal 1.1403758875490994e-05 -0.499995479397627 0.8660280136646225
  outer loop
    vertex 11.297197613837099 -56.88889547409529 104.73312924478053
    vertex 211.2969709186594 -50.39553659051823 108.48936293548255
    vertex 11.297107591330038 -50.39368829216363 108.48309365527663
  endloop
endfacet
facet normal 1.1403758875490994e-05 -0.499995479397627 0.8660280136646225
  outer loop
    vertex 211.2969709186594 -50.39553659051823 108.48936293548255
    vertex 11.297197613837099 -56.88889547409529 104.73312924478053
    vertex 211.29705016485977 -56.89074377261632 104.73939852503219
  endloop
endfacet
facet normal -0.9999999997291992 -2.035038356244492e-05 1.1289975034666873e-05
  outer loop
    vertex 11.297197613837099 -56.88889547409529 104.73312924478053
    vertex 11.296938425210946 -50.39387788005822 93.48311206570014
    vertex 11.297022331610826 -56.88907755099464 97.23315540798525
  endloop
endfacet
facet normal -0.9999999997291992 -2.035038356244492e-05 1.1289975034666873e-05
  outer loop
    vertex 11.296938425210946 -50.39387788005822 93.48311206570014
    vertex 11.297197613837099 -56.88889547409529 104.73312924478053
    vertex 11.297107591330038 -50.39368829216363 108.48309365527663
  endloop
endfacet
facet normal -0.9999999997291992 -2.035038356244492e-05 1.1289975034666873e-05
  outer loop
    vertex 11.296938425210946 -50.39387788005822 93.48311206570014
    vertex 11.297107591330038 -50.39368829216363 108.48309365527663
    vertex 11.296848402702985 -43.89867069812692 97.2330764761962
  endloop
endfacet
facet normal -0.9999999997291992 -2.035038356244492e-05 1.1289975034666873e-05
  outer loop
    vertex 11.296848402702985 -43.89867069812692 97.2330764761962
    vertex 11.297107591330038 -50.39368829216363 108.48309365527663
    vertex 11.29684282541677 -43.89866416622711 104.7330818241307
  endloop
endfacet
facet normal 4.055416728818233e-06 -0.5000038063186879 -0.8660232061846714
  outer loop
    vertex 211.29701368658783 -50.39572617513563 93.48938134501097
    vertex 11.297022331610826 -56.88907755099464 97.23315540798525
    vertex 11.296938425210946 -50.39387788005822 93.48311206570014
  endloop
endfacet
facet normal 4.055416728818233e-06 -0.5000038063186879 -0.8660232061846714
  outer loop
    vertex 11.297022331610826 -56.88907755099464 97.23315540798525
    vertex 211.29701368658783 -50.39572617513563 93.48938134501097
    vertex 211.29716225083206 -56.89092584507346 97.23942468701765
  endloop
endfacet
endsolid DriveTrainWithResQ
