solid DriveTrainResQParts
facet normal 0.5000000087551536 0.8660253987296482 -8.715393926551433e-19
  outer loop
    vertex -76.50357711325829 109.7009595987874 67.0999984741211
    vertex -76.50357711325829 109.7009595987874 -67.0999984741211
    vertex -79.00357711325829 111.14433530546007 67.0999984741211
  endloop
endfacet
facet normal 0.5000000087551536 0.8660253987296481 8.715393926551433e-19
  outer loop
    vertex -79.00357711325829 111.14433530546007 67.0999984741211
    vertex -76.50357711325829 109.7009595987874 -67.0999984741211
    vertex -79.00357711325829 111.14433530546007 -67.0999984741211
  endloop
endfacet
facet normal 1.0 0.0 0.0
  outer loop
    vertex -76.50357711325829 109.7009595987874 67.0999984741211
    vertex -76.50357711325829 106.81420818544208 67.0999984741211
    vertex -76.50357711325829 109.7009595987874 -67.0999984741211
  endloop
endfacet
facet normal 1.0 0.0 0.0
  outer loop
    vertex -76.50357711325829 109.7009595987874 -67.0999984741211
    vertex -76.50357711325829 106.81420818544208 67.0999984741211
    vertex -76.50357711325829 106.81420818544208 -67.0999984741211
  endloop
endfacet
facet normal 0.353554050612986 0.6123735645863372 0.7071054735263851
  outer loop
    vertex -76.50357711325829 109.7009595987874 67.0999984741211
    vertex -79.00357711325829 111.14433530546007 67.0999984741211
    vertex -76.90357720862572 109.47001949525652 67.5
  endloop
endfacet
facet normal 0.35355409181870984 0.6123736033301886 0.7071054193701588
  outer loop
    vertex -76.90357720862572 109.47001949525652 67.5
    vertex -79.00357711325829 111.14433530546007 67.0999984741211
    vertex -79.00357711325829 110.68245509839831 67.5
  endloop
endfacet
facet normal -0.5000000087551544 0.8660253987296478 -2.6146181779654387e-18
  outer loop
    vertex -79.00357711325829 111.14433530546007 67.0999984741211
    vertex -79.00357711325829 111.14433530546007 -67.0999984741211
    vertex -81.50357711325829 109.7009595987874 67.0999984741211
  endloop
endfacet
facet normal -0.5000000087551544 0.8660253987296478 -8.715393926551463e-19
  outer loop
    vertex -81.50357711325829 109.7009595987874 67.0999984741211
    vertex -79.00357711325829 111.14433530546007 -67.0999984741211
    vertex -81.50357711325829 109.7009595987874 -67.0999984741211
  endloop
endfacet
facet normal 0.35355406238608666 0.6123735523513939 -0.7071054782356233
  outer loop
    vertex -76.50357711325829 109.7009595987874 -67.0999984741211
    vertex -76.90357720862572 109.47001949525652 -67.5
    vertex -79.00357711325829 110.68245509839831 -67.5
  endloop
endfacet
facet normal 0.35355407533638755 0.6123736074085241 -0.707105424079396
  outer loop
    vertex -76.50357711325829 109.7009595987874 -67.0999984741211
    vertex -79.00357711325829 110.68245509839831 -67.5
    vertex -79.00357711325829 111.14433530546007 -67.0999984741211
  endloop
endfacet
facet normal 0.5000000087551537 -0.8660253987296481 2.614618177965432e-18
  outer loop
    vertex -79.00357711325829 105.37083247876942 67.0999984741211
    vertex -79.00357711325829 105.37083247876942 -67.0999984741211
    vertex -76.50357711325829 106.81420818544208 67.0999984741211
  endloop
endfacet
facet normal 0.5000000087551538 -0.8660253987296481 8.715393926551444e-19
  outer loop
    vertex -76.50357711325829 106.81420818544208 67.0999984741211
    vertex -79.00357711325829 105.37083247876942 -67.0999984741211
    vertex -76.50357711325829 106.81420818544208 -67.0999984741211
  endloop
endfacet
facet normal 0.7071080455883108 0.0 0.7071055167825234
  outer loop
    vertex -76.50357711325829 109.7009595987874 67.0999984741211
    vertex -76.90357720862572 109.47001949525652 67.5
    vertex -76.90357720862572 107.04514828897297 67.5
  endloop
endfacet
facet normal 0.7071080455883108 0.0 0.7071055167825234
  outer loop
    vertex -76.50357711325829 109.7009595987874 67.0999984741211
    vertex -76.90357720862572 107.04514828897297 67.5
    vertex -76.50357711325829 106.81420818544208 67.0999984741211
  endloop
endfacet
facet normal 0.7071080455883108 0.0 -0.7071055167825234
  outer loop
    vertex -76.50357711325829 109.7009595987874 -67.0999984741211
    vertex -76.50357711325829 106.81420818544208 -67.0999984741211
    vertex -76.90357720862572 109.47001949525652 -67.5
  endloop
endfacet
facet normal 0.7071080455883109 -1.8666119094746476e-17 -0.7071055167825233
  outer loop
    vertex -76.90357720862572 109.47001949525652 -67.5
    vertex -76.50357711325829 106.81420818544208 -67.0999984741211
    vertex -76.90357720862572 107.04514828897297 -67.5
  endloop
endfacet
facet normal 0.0 0.0 1.0
  outer loop
    vertex -76.90357720862572 109.47001949525652 67.5
    vertex -79.00357711325829 110.68245509839831 67.5
    vertex -81.10357701789086 109.47001949525652 67.5
  endloop
endfacet
facet normal 0.0 0.0 1.0
  outer loop
    vertex -76.90357720862572 109.47001949525652 67.5
    vertex -81.10357701789086 109.47001949525652 67.5
    vertex -81.10357701789086 107.04514828897297 67.5
  endloop
endfacet
facet normal 0.0 0.0 1.0
  outer loop
    vertex -76.90357720862572 109.47001949525652 67.5
    vertex -81.10357701789086 107.04514828897297 67.5
    vertex -79.00357711325829 105.83271268583118 67.5
  endloop
endfacet
facet normal 0.0 0.0 1.0
  outer loop
    vertex -76.90357720862572 109.47001949525652 67.5
    vertex -79.00357711325829 105.83271268583118 67.5
    vertex -76.90357720862572 107.04514828897297 67.5
  endloop
endfacet
facet normal -0.3535540753363876 0.6123736074085232 0.7071054240793969
  outer loop
    vertex -79.00357711325829 110.68245509839831 67.49999999999999
    vertex -79.00357711325829 111.14433530546007 67.0999984741211
    vertex -81.50357711325829 109.7009595987874 67.0999984741211
  endloop
endfacet
facet normal -0.3535540623860867 0.6123735523513931 0.7071054782356241
  outer loop
    vertex -79.00357711325829 110.68245509839831 67.49999999999999
    vertex -81.50357711325829 109.7009595987874 67.0999984741211
    vertex -81.10357701789086 109.47001949525652 67.49999999999999
  endloop
endfacet
facet normal -1.0 0.0 0.0
  outer loop
    vertex -81.50357711325829 109.7009595987874 -67.0999984741211
    vertex -81.50357711325829 106.81420818544208 -67.0999984741211
    vertex -81.50357711325829 109.7009595987874 67.0999984741211
  endloop
endfacet
facet normal -1.0 0.0 0.0
  outer loop
    vertex -81.50357711325829 109.7009595987874 67.0999984741211
    vertex -81.50357711325829 106.81420818544208 -67.0999984741211
    vertex -81.50357711325829 106.81420818544208 67.0999984741211
  endloop
endfacet
facet normal -0.35355409181871 0.6123736033301881 -0.7071054193701591
  outer loop
    vertex -79.00357711325829 110.68245509839831 -67.5
    vertex -81.10357701789086 109.47001949525652 -67.5
    vertex -79.00357711325829 111.14433530546007 -67.0999984741211
  endloop
endfacet
facet normal -0.3535540506129849 0.612373564586335 -0.7071054735263874
  outer loop
    vertex -79.00357711325829 111.14433530546007 -67.0999984741211
    vertex -81.10357701789086 109.47001949525652 -67.5
    vertex -81.50357711325829 109.7009595987874 -67.0999984741211
  endloop
endfacet
facet normal 0.0 0.0 1.0
  outer loop
    vertex -76.90357720862572 109.47001949525652 -67.5
    vertex -79.00357711325829 110.68245509839831 -67.5
    vertex -81.10357701789086 109.47001949525652 -67.5
  endloop
endfacet
facet normal 0.0 0.0 1.0
  outer loop
    vertex -76.90357720862572 109.47001949525652 -67.5
    vertex -79.00357711325829 105.83271268583118 -67.5
    vertex -76.90357720862572 107.04514828897297 -67.5
  endloop
endfacet
facet normal 0.0 0.0 1.0
  outer loop
    vertex -76.90357720862572 109.47001949525652 -67.5
    vertex -81.10357701789086 107.04514828897297 -67.5
    vertex -79.00357711325829 105.83271268583118 -67.5
  endloop
endfacet
facet normal 0.0 0.0 1.0
  outer loop
    vertex -76.90357720862572 109.47001949525652 -67.5
    vertex -81.10357701789086 109.47001949525652 -67.5
    vertex -81.10357701789086 107.04514828897297 -67.5
  endloop
endfacet
facet normal -0.500000008755154 -0.866025398729648 0.0
  outer loop
    vertex -81.50357711325829 106.81420818544208 67.0999984741211
    vertex -81.50357711325829 106.81420818544208 -67.0999984741211
    vertex -79.00357711325829 105.37083247876942 67.0999984741211
  endloop
endfacet
facet normal -0.500000008755154 -0.866025398729648 -1.7430787853102908e-18
  outer loop
    vertex -79.00357711325829 105.37083247876942 67.0999984741211
    vertex -81.50357711325829 106.81420818544208 -67.0999984741211
    vertex -79.00357711325829 105.37083247876942 -67.0999984741211
  endloop
endfacet
facet normal 0.3535540623860865 -0.6123735523513937 0.7071054782356235
  outer loop
    vertex -76.50357711325829 106.81420818544208 67.0999984741211
    vertex -76.90357720862572 107.04514828897297 67.5
    vertex -79.00357711325829 105.83271268583118 67.5
  endloop
endfacet
facet normal 0.3535540753363875 -0.612373607408524 0.7071054240793966
  outer loop
    vertex -76.50357711325829 106.81420818544208 67.0999984741211
    vertex -79.00357711325829 105.83271268583118 67.5
    vertex -79.00357711325829 105.37083247876942 67.0999984741211
  endloop
endfacet
facet normal 0.35355405061298645 -0.6123735645863375 -0.7071054735263848
  outer loop
    vertex -76.50357711325829 106.81420818544208 -67.0999984741211
    vertex -79.00357711325829 105.3708324787694 -67.0999984741211
    vertex -76.90357720862572 107.04514828897297 -67.5
  endloop
endfacet
facet normal 0.35355409181870895 -0.6123736033301874 -0.7071054193701605
  outer loop
    vertex -76.90357720862572 107.04514828897297 -67.5
    vertex -79.00357711325829 105.3708324787694 -67.0999984741211
    vertex -79.00357711325829 105.83271268583118 -67.5
  endloop
endfacet
facet normal -0.7071080455883108 0.0 0.7071055167825234
  outer loop
    vertex -81.50357711325829 109.7009595987874 67.0999984741211
    vertex -81.50357711325829 106.81420818544208 67.0999984741211
    vertex -81.10357701789086 109.47001949525652 67.5
  endloop
endfacet
facet normal -0.7071080455883109 -1.8666119094746476e-17 0.7071055167825233
  outer loop
    vertex -81.10357701789086 109.47001949525652 67.5
    vertex -81.50357711325829 106.81420818544208 67.0999984741211
    vertex -81.10357701789086 107.04514828897297 67.5
  endloop
endfacet
facet normal -0.3535540918187094 -0.6123736033301873 0.7071054193701601
  outer loop
    vertex -79.00357711325829 105.83271268583118 67.49999999999999
    vertex -81.10357701789086 107.04514828897297 67.49999999999999
    vertex -79.00357711325829 105.37083247876942 67.0999984741211
  endloop
endfacet
facet normal -0.3535540506129846 -0.6123735645863346 0.7071054735263879
  outer loop
    vertex -79.00357711325829 105.37083247876942 67.0999984741211
    vertex -81.10357701789086 107.04514828897297 67.49999999999999
    vertex -81.50357711325829 106.81420818544208 67.0999984741211
  endloop
endfacet
facet normal -0.7071080455883108 0.0 -0.7071055167825234
  outer loop
    vertex -81.50357711325829 109.7009595987874 -67.0999984741211
    vertex -81.10357701789086 109.47001949525652 -67.5
    vertex -81.10357701789086 107.04514828897297 -67.5
  endloop
endfacet
facet normal -0.7071080455883108 0.0 -0.7071055167825234
  outer loop
    vertex -81.50357711325829 109.7009595987874 -67.0999984741211
    vertex -81.10357701789086 107.04514828897297 -67.5
    vertex -81.50357711325829 106.81420818544208 -67.0999984741211
  endloop
endfacet
facet normal -0.3535540753363876 -0.6123736074085239 -0.7071054240793964
  outer loop
    vertex -79.00357711325829 105.37083247876942 -67.0999984741211
    vertex -81.50357711325829 106.81420818544208 -67.0999984741211
    vertex -79.00357711325829 105.83271268583118 -67.5
  endloop
endfacet
facet normal -0.3535540623860862 -0.6123735523513923 -0.7071054782356249
  outer loop
    vertex -79.00357711325829 105.83271268583118 -67.5
    vertex -81.50357711325829 106.81420818544208 -67.0999984741211
    vertex -81.10357701789086 107.04514828897297 -67.5
  endloop
endfacet
endsolid DriveTrainResQParts
