solid DriveTrainResQParts
facet normal 0.5000000087551535 0.8660253987296483 0.0
  outer loop
    vertex -130.70146150185568 42.07592868710097 74.5999984741211
    vertex -130.70146150185568 42.07592868710097 0.40000000596046453
    vertex -133.20146150185568 43.51930439377364 74.5999984741211
  endloop
endfacet
facet normal 0.5000000087551539 0.8660253987296482 2.344620049297203e-17
  outer loop
    vertex -133.20146150185568 43.51930439377364 74.5999984741211
    vertex -130.70146150185568 42.07592868710097 0.40000000596046453
    vertex -133.20146150185568 43.51930439377364 0.40000000596046453
  endloop
endfacet
facet normal 1.0 0.0 0.0
  outer loop
    vertex -130.70146150185568 42.07592868710097 74.5999984741211
    vertex -130.70146150185568 39.18917727375563 74.5999984741211
    vertex -130.70146150185568 42.07592868710097 0.40000000596046453
  endloop
endfacet
facet normal 1.0 0.0 0.0
  outer loop
    vertex -130.70146150185568 42.07592868710097 0.40000000596046453
    vertex -130.70146150185568 39.18917727375563 74.5999984741211
    vertex -130.70146150185568 39.18917727375563 0.40000000596046453
  endloop
endfacet
facet normal 0.35355405061298617 0.6123735645863377 0.7071054735263844
  outer loop
    vertex -130.70146150185568 42.07592868710097 74.5999984741211
    vertex -133.20146150185568 43.51930439377364 74.5999984741211
    vertex -131.1014615972231 41.84498858357008 74.99999999999999
  endloop
endfacet
facet normal 0.3535540918187094 0.6123736033301885 0.707105419370159
  outer loop
    vertex -131.1014615972231 41.84498858357008 74.99999999999999
    vertex -133.20146150185568 43.51930439377364 74.5999984741211
    vertex -133.20146150185568 43.05742418671187 74.99999999999999
  endloop
endfacet
facet normal -0.5000000087551547 0.8660253987296478 -2.1314727720883738e-17
  outer loop
    vertex -133.20146150185568 43.51930439377364 74.5999984741211
    vertex -133.20146150185568 43.51930439377364 0.40000000596046453
    vertex -135.70146150185568 42.07592868710097 74.5999984741211
  endloop
endfacet
facet normal -0.5000000087551543 0.8660253987296479 0.0
  outer loop
    vertex -135.70146150185568 42.07592868710097 74.5999984741211
    vertex -133.20146150185568 43.51930439377364 0.40000000596046453
    vertex -135.70146150185568 42.07592868710097 0.40000000596046453
  endloop
endfacet
facet normal 0.35355339067253566 0.6123723889094844 -0.7071068216650472
  outer loop
    vertex -130.70146150185568 42.07592868710097 0.40000000596046453
    vertex -131.1014615972231 41.84498858357008 -3.790604126116513e-17
    vertex -133.20146150185568 43.05742418671187 -2.151463686025923e-16
  endloop
endfacet
facet normal 0.3535534036229147 0.6123724439666878 -0.7071067675089232
  outer loop
    vertex -130.70146150185568 42.07592868710097 0.40000000596046453
    vertex -133.20146150185568 43.05742418671187 -2.151463686025923e-16
    vertex -133.20146150185568 43.51930439377364 0.40000000596046453
  endloop
endfacet
facet normal 0.5000000087551539 -0.8660253987296482 2.131472772088367e-18
  outer loop
    vertex -133.20146150185568 37.745801567082964 74.5999984741211
    vertex -133.20146150185568 37.745801567082964 0.40000000596046453
    vertex -130.70146150185568 39.18917727375563 74.5999984741211
  endloop
endfacet
facet normal 0.5000000087551539 -0.8660253987296482 2.1314727720883665e-18
  outer loop
    vertex -130.70146150185568 39.18917727375563 74.5999984741211
    vertex -133.20146150185568 37.745801567082964 0.40000000596046453
    vertex -130.70146150185568 39.18917727375563 0.40000000596046453
  endloop
endfacet
facet normal 0.7071080455883014 0.0 0.7071055167825325
  outer loop
    vertex -130.70146150185568 42.07592868710097 74.5999984741211
    vertex -131.1014615972231 41.84498858357008 75.0
    vertex -131.1014615972231 39.420117377286516 75.0
  endloop
endfacet
facet normal 0.7071080455883015 0.0 0.7071055167825326
  outer loop
    vertex -130.70146150185568 42.07592868710097 74.5999984741211
    vertex -131.1014615972231 39.420117377286516 75.0
    vertex -130.70146150185568 39.18917727375563 74.5999984741211
  endloop
endfacet
facet normal 0.7071067021612121 6.585442983125434e-18 -0.7071068602118742
  outer loop
    vertex -130.70146150185568 39.18917727375563 0.40000000596046453
    vertex -131.1014615972231 41.84498858357008 -3.7906041261165125e-17
    vertex -130.70146150185568 42.07592868710097 0.40000000596046453
  endloop
endfacet
facet normal 0.707106702161212 -1.8666221313849874e-17 -0.7071068602118743
  outer loop
    vertex -130.70146150185568 39.18917727375563 0.40000000596046453
    vertex -131.1014615972231 39.420117377286516 9.649941303858333e-17
    vertex -131.1014615972231 41.84498858357008 -3.7906041261165125e-17
  endloop
endfacet
facet normal 0.0 0.0 1.0
  outer loop
    vertex -131.1014615972231 41.84498858357008 75.0
    vertex -133.20146150185568 43.05742418671187 75.0
    vertex -135.30146140648824 41.84498858357008 75.0
  endloop
endfacet
facet normal 0.0 0.0 1.0
  outer loop
    vertex -131.1014615972231 41.84498858357008 75.0
    vertex -135.30146140648824 41.84498858357008 75.0
    vertex -135.30146140648824 39.420117377286516 75.0
  endloop
endfacet
facet normal 0.0 0.0 1.0
  outer loop
    vertex -131.1014615972231 41.84498858357008 75.0
    vertex -135.30146140648824 39.420117377286516 75.0
    vertex -133.20146150185568 38.207681774144724 75.0
  endloop
endfacet
facet normal 0.0 0.0 1.0
  outer loop
    vertex -131.1014615972231 41.84498858357008 75.0
    vertex -133.20146150185568 38.207681774144724 75.0
    vertex -131.1014615972231 39.420117377286516 75.0
  endloop
endfacet
facet normal -0.3535540753363914 0.6123736074085294 0.7071054240793896
  outer loop
    vertex -133.20146150185568 43.05742418671187 75.0
    vertex -133.20146150185568 43.51930439377364 74.5999984741211
    vertex -135.70146150185568 42.07592868710097 74.5999984741211
  endloop
endfacet
facet normal -0.3535540623860904 0.6123735523513989 0.7071054782356173
  outer loop
    vertex -133.20146150185568 43.05742418671187 75.0
    vertex -135.70146150185568 42.07592868710097 74.5999984741211
    vertex -135.30146140648824 41.84498858357008 75.0
  endloop
endfacet
facet normal -1.0 0.0 0.0
  outer loop
    vertex -135.70146150185568 42.07592868710097 0.40000000596046453
    vertex -135.70146150185568 39.18917727375563 0.40000000596046453
    vertex -135.70146150185568 42.07592868710097 74.5999984741211
  endloop
endfacet
facet normal -1.0 0.0 0.0
  outer loop
    vertex -135.70146150185568 42.07592868710097 74.5999984741211
    vertex -135.70146150185568 39.18917727375563 0.40000000596046453
    vertex -135.70146150185568 39.18917727375563 74.5999984741211
  endloop
endfacet
facet normal -0.353553420105214 0.6123724398883745 -0.7071067627996958
  outer loop
    vertex -133.20146150185568 43.05742418671187 -2.1514636860259229e-16
    vertex -135.30146140648824 41.84498858357008 -4.743384504624081e-17
    vertex -133.20146150185568 43.51930439377364 0.4000000059604644
  endloop
endfacet
facet normal -0.35355337889946536 0.6123724011444184 -0.7071068169558195
  outer loop
    vertex -133.20146150185568 43.51930439377364 0.4000000059604644
    vertex -135.30146140648824 41.84498858357008 -4.743384504624081e-17
    vertex -135.70146150185568 42.07592868710097 0.4000000059604644
  endloop
endfacet
facet normal -1.364390145486521e-16 5.542787342744785e-17 1.0
  outer loop
    vertex -131.1014615972231 41.84498858357008 -3.790604126116513e-17
    vertex -133.20146150185568 38.207681774144724 -1.2281977735187355e-16
    vertex -131.1014615972231 39.420117377286516 9.649941303858333e-17
  endloop
endfacet
facet normal 9.617214646908357e-17 -7.887023271193772e-17 1.0
  outer loop
    vertex -131.1014615972231 41.84498858357008 -3.790604126116513e-17
    vertex -135.30146140648824 39.420117377286516 1.747667992295425e-16
    vertex -133.20146150185568 38.207681774144724 -1.2281977735187355e-16
  endloop
endfacet
facet normal -2.2685248137529717e-18 9.163399841607865e-17 1.0
  outer loop
    vertex -131.1014615972231 41.84498858357008 -3.790604126116513e-17
    vertex -135.30146140648824 41.84498858357008 -4.7433845046240825e-17
    vertex -135.30146140648824 39.420117377286516 1.747667992295425e-16
  endloop
endfacet
facet normal -2.2685248137529686e-18 1.4225615364803797e-16 1.0
  outer loop
    vertex -131.1014615972231 41.84498858357008 -3.790604126116513e-17
    vertex -133.20146150185568 43.05742418671187 -2.1514636860259229e-16
    vertex -135.30146140648824 41.84498858357008 -4.7433845046240825e-17
  endloop
endfacet
facet normal -0.5000000087551542 -0.866025398729648 0.0
  outer loop
    vertex -135.70146150185568 39.18917727375563 74.5999984741211
    vertex -135.70146150185568 39.18917727375563 0.40000000596046453
    vertex -133.20146150185568 37.745801567082964 74.5999984741211
  endloop
endfacet
facet normal -0.5000000087551542 -0.866025398729648 2.1314727720883684e-18
  outer loop
    vertex -133.20146150185568 37.745801567082964 74.5999984741211
    vertex -135.70146150185568 39.18917727375563 0.40000000596046453
    vertex -133.20146150185568 37.745801567082964 0.40000000596046453
  endloop
endfacet
facet normal 0.35355406238608655 -0.6123735523513936 0.707105478235624
  outer loop
    vertex -130.70146150185568 39.18917727375563 74.5999984741211
    vertex -131.1014615972231 39.420117377286516 75.00000000000001
    vertex -133.20146150185568 38.207681774144724 75.00000000000001
  endloop
endfacet
facet normal 0.35355407533638694 -0.6123736074085226 0.7071054240793978
  outer loop
    vertex -130.70146150185568 39.18917727375563 74.5999984741211
    vertex -133.20146150185568 38.207681774144724 75.00000000000001
    vertex -133.20146150185568 37.745801567082964 74.5999984741211
  endloop
endfacet
facet normal 0.3535533788994662 -0.6123724011444196 -0.7071068169558179
  outer loop
    vertex -130.70146150185568 39.18917727375563 0.40000000596046453
    vertex -133.20146150185568 37.745801567082964 0.40000000596046453
    vertex -131.1014615972231 39.420117377286516 9.649941303858333e-17
  endloop
endfacet
facet normal 0.35355342010521446 -0.6123724398883753 -0.7071067627996949
  outer loop
    vertex -131.1014615972231 39.420117377286516 9.649941303858333e-17
    vertex -133.20146150185568 37.745801567082964 0.40000000596046453
    vertex -133.20146150185568 38.207681774144724 -1.2281977735187355e-16
  endloop
endfacet
facet normal -0.7071080455883015 0.0 0.7071055167825326
  outer loop
    vertex -135.70146150185568 42.07592868710097 74.5999984741211
    vertex -135.70146150185568 39.18917727375563 74.5999984741211
    vertex -135.30146140648824 41.84498858357008 75.0
  endloop
endfacet
facet normal -0.7071080455883015 0.0 0.7071055167825326
  outer loop
    vertex -135.30146140648824 41.84498858357008 75.0
    vertex -135.70146150185568 39.18917727375563 74.5999984741211
    vertex -135.30146140648824 39.420117377286516 75.0
  endloop
endfacet
facet normal -0.35355409181871433 -0.6123736033301955 0.7071054193701506
  outer loop
    vertex -133.20146150185568 38.207681774144724 75.00000000000001
    vertex -135.30146140648824 39.420117377286516 75.00000000000001
    vertex -133.20146150185568 37.745801567082964 74.5999984741211
  endloop
endfacet
facet normal -0.3535540506129897 -0.6123735645863428 0.7071054735263783
  outer loop
    vertex -133.20146150185568 37.745801567082964 74.5999984741211
    vertex -135.30146140648824 39.420117377286516 75.00000000000001
    vertex -135.70146150185568 39.18917727375563 74.5999984741211
  endloop
endfacet
facet normal -0.7071067021612123 -7.466488525539951e-17 -0.7071068602118742
  outer loop
    vertex -135.30146140648824 39.420117377286516 1.747667992295425e-16
    vertex -135.70146150185568 42.07592868710097 0.40000000596046453
    vertex -135.30146140648824 41.84498858357008 -4.743384504624081e-17
  endloop
endfacet
facet normal -0.707106702161212 -6.5854429831254365e-18 -0.7071068602118744
  outer loop
    vertex -135.30146140648824 39.420117377286516 1.747667992295425e-16
    vertex -135.70146150185568 39.18917727375563 0.40000000596046453
    vertex -135.70146150185568 42.07592868710097 0.40000000596046453
  endloop
endfacet
facet normal -0.3535534036229151 -0.6123724439666883 -0.7071067675089224
  outer loop
    vertex -133.20146150185568 37.745801567082964 0.40000000596046453
    vertex -135.70146150185568 39.18917727375563 0.40000000596046453
    vertex -133.20146150185568 38.207681774144724 -1.2281977735187355e-16
  endloop
endfacet
facet normal -0.3535533906725357 -0.6123723889094836 -0.7071068216650475
  outer loop
    vertex -133.20146150185568 38.207681774144724 -1.2281977735187355e-16
    vertex -135.70146150185568 39.18917727375563 0.40000000596046453
    vertex -135.30146140648824 39.420117377286516 1.747667992295425e-16
  endloop
endfacet
endsolid DriveTrainResQParts
