solid DriveTrainWithResQ
facet normal 1.7442192011253976e-07 0.9848077558618428 0.1736481615057603
  outer loop
    vertex -108.24992544022444 3018.879687096162 121.90818495630718
    vertex -134.24993064105655 2949.420175881067 515.8319077845334
    vertex -108.24993390909316 2949.4201733833065 515.8319077845332
  endloop
endfacet
facet normal 1.7442192011253976e-07 0.9848077558618428 0.1736481615057603
  outer loop
    vertex -134.24993064105655 2949.420175881067 515.8319077845334
    vertex -108.24992544022444 3018.879687096162 121.90818495630718
    vertex -134.24992576429082 3018.879689593923 121.90818495630722
  endloop
endfacet
facet normal -0.9999999999999917 1.2975912901518842e-07 7.831260242835903e-09
  outer loop
    vertex -134.24993002015722 2993.2746858353416 117.39333241630743
    vertex -134.24993064105655 2949.420175881067 515.8319077845334
    vertex -134.24992576429082 3018.879689593923 121.90818495630722
  endloop
endfacet
facet normal -0.9999999999999917 1.2975912901518842e-07 7.831260242835903e-09
  outer loop
    vertex -134.24993064105655 2949.420175881067 515.8319077845334
    vertex -134.24993002015722 2993.2746858353416 117.39333241630743
    vertex -134.24993310087083 2923.81516673433 511.31705778453346
  endloop
endfacet
facet normal 0.9999999999999979 -6.698273398801201e-08 6.934953730976716e-09
  outer loop
    vertex -108.24992610398759 2993.27468333758 117.39333241630709
    vertex -108.24993390909316 2949.4201733833065 515.8319077845332
    vertex -108.24993636890771 2923.815164236571 511.3170577845331
  endloop
endfacet
facet normal 0.9999999999999979 -6.698273398801201e-08 6.934953730976716e-09
  outer loop
    vertex -108.24993390909316 2949.4201733833065 515.8319077845332
    vertex -108.24992610398759 2993.27468333758 117.39333241630709
    vertex -108.24992544022444 3018.879687096162 121.90818495630718
  endloop
endfacet
facet normal -1.6681970791922873e-08 -0.17364803018107544 0.984807779017932
  outer loop
    vertex -108.24993636890771 2923.815164236571 511.3170577845331
    vertex -134.24993064105655 2949.420175881067 515.8319077845334
    vertex -134.24993310087083 2923.81516673433 511.31705778453346
  endloop
endfacet
facet normal -1.6681970791922873e-08 -0.17364803018107544 0.984807779017932
  outer loop
    vertex -134.24993064105655 2949.420175881067 515.8319077845334
    vertex -108.24993636890771 2923.815164236571 511.3170577845331
    vertex -108.24993390909316 2949.4201733833065 515.8319077845332
  endloop
endfacet
facet normal -1.749047331590015e-07 -0.9848077552765091 -0.17364816482535295
  outer loop
    vertex -134.24993310087083 2923.81516673433 511.31705778453346
    vertex -108.24992610398759 2993.27468333758 117.39333241630709
    vertex -108.24993636890771 2923.815164236571 511.3170577845331
  endloop
endfacet
facet normal -1.749047331590015e-07 -0.9848077552765091 -0.17364816482535295
  outer loop
    vertex -108.24992610398759 2993.27468333758 117.39333241630709
    vertex -134.24993310087083 2923.81516673433 511.31705778453346
    vertex -134.24993002015722 2993.2746858353416 117.39333241630743
  endloop
endfacet
facet normal 1.6681979063471206e-08 0.17364816036712344 -0.9848077560626306
  outer loop
    vertex -134.24992576429082 3018.879689593923 121.90818495630722
    vertex -108.24992610398759 2993.27468333758 117.39333241630709
    vertex -134.24993002015722 2993.2746858353416 117.39333241630743
  endloop
endfacet
facet normal 1.6681979063471206e-08 0.17364816036712344 -0.9848077560626306
  outer loop
    vertex -108.24992610398759 2993.27468333758 117.39333241630709
    vertex -134.24992576429082 3018.879689593923 121.90818495630722
    vertex -108.24992544022444 3018.879687096162 121.90818495630718
  endloop
endfacet
endsolid DriveTrainWithResQ
