solid DriveTrainWithResQ
facet normal -1.0 0.0 6.661338147750937e-16
  outer loop
    vertex 160.2995936270503 439.86916519115425 203.535381345011
    vertex 160.2995936270503 -4.630834808844973 201.249381345011
    vertex 160.2995936270503 -4.630834808844973 203.535381345011
  endloop
endfacet
facet normal -1.0 0.0 6.661338147750937e-16
  outer loop
    vertex 160.2995936270503 -4.630834808844973 201.249381345011
    vertex 160.2995936270503 439.86916519115425 203.535381345011
    vertex 160.2995936270503 439.86916519115425 201.249381345011
  endloop
endfacet
facet normal -6.661338147750937e-16 0.0 -1.0
  outer loop
    vertex 196.36759362705064 439.86916519115425 201.24938134501096
    vertex 160.2995936270503 -4.630834808844973 201.249381345011
    vertex 160.2995936270503 439.86916519115425 201.249381345011
  endloop
endfacet
facet normal -6.661338147750937e-16 0.0 -1.0
  outer loop
    vertex 160.2995936270503 -4.630834808844973 201.249381345011
    vertex 196.36759362705064 439.86916519115425 201.24938134501096
    vertex 196.36759362705064 -4.630834808844973 201.24938134501096
  endloop
endfacet
facet normal -1.0 0.0 6.661338147750937e-16
  outer loop
    vertex 196.36759362705064 439.86916519115425 201.24938134501096
    vertex 196.36759362705058 -4.630834808844973 89.48938134501095
    vertex 196.36759362705064 -4.630834808844973 201.24938134501096
  endloop
endfacet
facet normal -1.0 0.0 6.661338147750937e-16
  outer loop
    vertex 196.36759362705058 -4.630834808844973 89.48938134501095
    vertex 196.36759362705064 439.86916519115425 201.24938134501096
    vertex 196.36759362705058 439.86916519115425 89.48938134501095
  endloop
endfacet
facet normal 0.0 -1.0 0.0
  outer loop
    vertex 198.65359362705064 -4.630834808844973 203.53538134501096
    vertex 196.36759362705058 -4.630834808844973 89.48938134501095
    vertex 198.65359362705058 -4.630834808844973 89.48938134501095
  endloop
endfacet
facet normal 0.0 -1.0 0.0
  outer loop
    vertex 196.36759362705058 -4.630834808844973 89.48938134501095
    vertex 198.65359362705064 -4.630834808844973 203.53538134501096
    vertex 196.36759362705064 -4.630834808844973 201.24938134501096
  endloop
endfacet
facet normal 0.0 -1.0 0.0
  outer loop
    vertex 196.36759362705064 -4.630834808844973 201.24938134501096
    vertex 198.65359362705064 -4.630834808844973 203.53538134501096
    vertex 160.2995936270503 -4.630834808844973 201.249381345011
  endloop
endfacet
facet normal 0.0 -1.0 0.0
  outer loop
    vertex 160.2995936270503 -4.630834808844973 201.249381345011
    vertex 198.65359362705064 -4.630834808844973 203.53538134501096
    vertex 160.2995936270503 -4.630834808844973 203.535381345011
  endloop
endfacet
facet normal 6.661338147750937e-16 0.0 1.0
  outer loop
    vertex 198.65359362705064 -4.630834808844973 203.53538134501096
    vertex 160.2995936270503 439.86916519115425 203.535381345011
    vertex 160.2995936270503 -4.630834808844973 203.535381345011
  endloop
endfacet
facet normal 6.661338147750937e-16 0.0 1.0
  outer loop
    vertex 160.2995936270503 439.86916519115425 203.535381345011
    vertex 198.65359362705064 -4.630834808844973 203.53538134501096
    vertex 198.65359362705064 439.86916519115425 203.53538134501096
  endloop
endfacet
facet normal -6.661338147750937e-16 0.0 -1.0
  outer loop
    vertex 198.65359362705058 439.86916519115425 89.48938134501095
    vertex 196.36759362705058 -4.630834808844973 89.48938134501095
    vertex 196.36759362705058 439.86916519115425 89.48938134501095
  endloop
endfacet
facet normal -6.661338147750937e-16 0.0 -1.0
  outer loop
    vertex 196.36759362705058 -4.630834808844973 89.48938134501095
    vertex 198.65359362705058 439.86916519115425 89.48938134501095
    vertex 198.65359362705058 -4.630834808844973 89.48938134501095
  endloop
endfacet
facet normal 1.0 0.0 -6.661338147750937e-16
  outer loop
    vertex 198.65359362705058 439.86916519115425 89.48938134501095
    vertex 198.65359362705064 -4.630834808844973 203.53538134501096
    vertex 198.65359362705058 -4.630834808844973 89.48938134501095
  endloop
endfacet
facet normal 1.0 0.0 -6.661338147750937e-16
  outer loop
    vertex 198.65359362705064 -4.630834808844973 203.53538134501096
    vertex 198.65359362705058 439.86916519115425 89.48938134501095
    vertex 198.65359362705064 439.86916519115425 203.53538134501096
  endloop
endfacet
facet normal 0.0 1.0 0.0
  outer loop
    vertex 196.36759362705064 439.86916519115425 201.24938134501096
    vertex 198.65359362705058 439.86916519115425 89.48938134501095
    vertex 196.36759362705058 439.86916519115425 89.48938134501095
  endloop
endfacet
facet normal 0.0 1.0 0.0
  outer loop
    vertex 198.65359362705058 439.86916519115425 89.48938134501095
    vertex 196.36759362705064 439.86916519115425 201.24938134501096
    vertex 198.65359362705064 439.86916519115425 203.53538134501096
  endloop
endfacet
facet normal 0.0 1.0 0.0
  outer loop
    vertex 198.65359362705064 439.86916519115425 203.53538134501096
    vertex 196.36759362705064 439.86916519115425 201.24938134501096
    vertex 160.2995936270503 439.86916519115425 201.249381345011
  endloop
endfacet
facet normal 0.0 1.0 0.0
  outer loop
    vertex 198.65359362705064 439.86916519115425 203.53538134501096
    vertex 160.2995936270503 439.86916519115425 201.249381345011
    vertex 160.2995936270503 439.86916519115425 203.535381345011
  endloop
endfacet
endsolid DriveTrainWithResQ
